<?xml version="1.0" encoding="utf-8"?>
<!-- Generator: Adobe Illustrator 24.2.3, SVG Export Plug-In . SVG Version: 6.00 Build 0)  -->
<svg version="1.1" id="Layer_1" xmlns="http://www.w3.org/2000/svg" xmlns:xlink="http://www.w3.org/1999/xlink" x="0px" y="0px"
	 viewBox="0 0 50 50" style="enable-background:new 0 0 50 50;" xml:space="preserve">
<style type="text/css">
	.st0{fill:#231F20;}
</style>
<g>
	<path class="st0" d="M10,13h30c0.6,0,0.8-0.3,0.8-0.7c0-0.4-0.2-0.7-0.8-0.7H10c-0.6,0-0.8,0.3-0.8,0.7C9.2,12.7,9.5,13,10,13z"/>
	<path class="st0" d="M10,25.7h30c0.6,0,0.8-0.3,0.8-0.7s-0.2-0.7-0.8-0.7H10c-0.6,0-0.8,0.3-0.8,0.7S9.5,25.7,10,25.7z"/>
	<path class="st0" d="M10,38.3h30c0.6,0,0.8-0.3,0.8-0.7S40.6,37,40,37H10c-0.6,0-0.8,0.3-0.8,0.7S9.5,38.3,10,38.3z"/>
</g>
</svg>
