<?xml version="1.0" encoding="utf-8"?>
<!-- Generator: Adobe Illustrator 24.2.3, SVG Export Plug-In . SVG Version: 6.00 Build 0)  -->
<svg version="1.1" id="Layer_1" xmlns="http://www.w3.org/2000/svg" xmlns:xlink="http://www.w3.org/1999/xlink" x="0px" y="0px"
	 viewBox="0 0 50 50" style="enable-background:new 0 0 50 50;" xml:space="preserve">
<style type="text/css">
	.st0{fill:#231F20;}
</style>
<g>
	<path class="st0" d="M10,13.2h30c0.6,0,1.1-0.5,1.1-1.2s-0.5-1.2-1.1-1.2H10c-0.6,0-1.1,0.5-1.1,1.2S9.5,13.2,10,13.2z"/>
	<path class="st0" d="M10,26.2h30c0.6,0,1.1-0.5,1.1-1.2s-0.5-1.2-1.1-1.2H10c-0.6,0-1.1,0.5-1.1,1.2S9.5,26.2,10,26.2z"/>
	<path class="st0" d="M10,39.3h30c0.6,0,1.1-0.5,1.1-1.2c0-0.7-0.5-1.2-1.1-1.2H10c-0.6,0-1.1,0.5-1.1,1.2
		C8.9,38.8,9.5,39.3,10,39.3z"/>
</g>
</svg>
