<?xml version="1.0" encoding="utf-8"?>
<!-- Generator: Adobe Illustrator 24.2.3, SVG Export Plug-In . SVG Version: 6.00 Build 0)  -->
<svg version="1.1" id="Layer_1" xmlns="http://www.w3.org/2000/svg" xmlns:xlink="http://www.w3.org/1999/xlink" x="0px" y="0px"
	 viewBox="0 0 192.2 48.9" style="enable-background:new 0 0 192.2 48.9;" xml:space="preserve">
<style type="text/css">
	.st0{display:none;opacity:0.38;}
	.st1{fill:none;stroke:#000000;stroke-width:1.5;stroke-linecap:round;stroke-miterlimit:10;}
</style>
<g id="Layer_1_1_" class="st0">
	
		<image style="display:inline;overflow:visible;enable-background:new    ;" width="4032" height="3021" xlink:href="AE6018B6D924F70.jpeg"  transform="matrix(0.1879 0 0 0.1879 -244.1401 -306.6697)">
	</image>
</g>
<g id="Layer_2_1_">
	<g>
		<path class="st1" d="M39.1,37.8"/>
		<path class="st1" d="M112.4,29.7"/>
		<path class="st1" d="M107.8,32.5"/>
		<path class="st1" d="M102.4,22.8"/>
		<path class="st1" d="M16,36.2c0.2-9,2.6-15.1,5.5-18.5s5.7-4.4,8.5-4.3c2.8,0.1,5.1,0.7,7.3,2.4s4.4,4,6,7.4
			c0.7,1.4,1.1,2.4,1.3,3.5c0.3,1.2,0.8,3.3,0.2,5.6c-0.8,3.1-3.3,6-4.6,5.5c-0.8-0.3-1-2-1.1-2.8c-0.3-3.1,1.3-5.6,2.4-7.3
			c0,0,1.7-2.7,4.6-4.4c0.4-0.3,1-0.6,1.7-0.5c1.1,0,1.9,0.8,2.8,1.7c1,1,0.7,1,2.2,2.9c0.3,0.3,1.1,1.3,2.2,2.3
			c0.4,0.3,0.6,0.6,1,0.8c0.1,0.1,0.3,0.2,0.5,0.3c0,0,0.7,0.4,1.3,0.7c0.3,0.1,2.6,0.9,4.5-0.5c2-1.4,1.8-4,1.8-4.5
			c0-0.4-0.2-2.1-1.6-3.4c-0.3-0.3-1.3-1.2-2.8-1.2s-2.5,0.8-2.8,1.1c-1.1,0.9-1.9,2.5-1.8,3.9c0.2,1.4,1.2,3.2,2.7,4
			c1.6,0.9,3.8,0.8,5.6,0.7c1-0.1,2.8-0.4,4.5-1.6c0.5-0.3,2.1-1.5,3.5-4.4c2.2-4.6,2.9-11.5,0.3-12.9c-0.6-0.3-1.5-0.4-2.3,0
			c-1.6,0.9-1.8,3.7-1.6,7.4c0.2,3.8,2.6,14.1,3.4,14c0.5-0.1,0.8-3.4,3-7.2c0.2-0.4,0.5-0.8,0.9-1.2c0.3-0.3,0.6-0.5,0.9-0.5
			c0.6,0,0.7,0.7,1.6,2.3c1.1,1.8,1.1,2,1.6,2.9c1.1,1.7,3.1,2.2,3.9,2.3c2.3,0.6,4.3-0.7,6.2-2.1c0.8-0.6-0.1,0.1,0.6-0.6
			c0.6-0.6,1.7-2.2,2.3-3.3c0.6-1.1,0.9-3.3-0.5-3.9c-0.9-0.4-2.1-0.1-2.8,0.5c-1.6,1.4-1,4.7,0.4,6.8c0.9,1.3,1.8,2,2.8,2.3
			c0.9,0.3,1.7,0.2,2.7,0c4-0.8,6.8-2.8,7.4-3.2c3-2.2,3.9-4.1,4-5c0.1-0.5,0-1.1,0-1.1c-0.1-0.7-0.1-1.4-0.5-1.7
			c-0.5-0.4-1.2-0.2-1.7,0c-1.3,0.4-2.1,1.4-2.3,1.6c-1.5,1.9-1.8,5.6,0.4,7.9c1.4,1.5,3.3,1.7,3.9,1.8c3.4,0.2,5.5-2.4,5.7-2.7"/>
		<path class="st1" d="M127.4,24.7c-0.1-0.2-0.8-2.7-3.3-3.4c-1.7-0.5-3.5,0-4.5,1c-2.4,2.3-1.6,7.9,1.5,10.7
			c4.2,3.9,11,1.1,11.8,0.8c4.3-1.7,6.4-5.2,8.6-8.8c1.6-2.6,2.8-4.6,2.4-7.3c-0.3-2.4-1.9-4.6-3.8-5.7c-0.7-0.4-1.9-1.1-2.8-0.6
			c-1.4,0.7-1.3,3.6-1.2,5c0.5,9.4,7.5,18.5,8.1,18.2c0.2-0.1-0.5-1-0.5-2.8c0-1.7,0.6-4.5,2.4-5c1.5-0.4,3.1,1,3.3,1.2
			c1.7,1.5,1.2,3,2.7,4.6c0.9,0.9,2.4,1.8,3.9,1.8c4,0,6.9-6.3,7.4-6c0.3,0.2-1.3,2.2-0.6,3.9c0.6,1.6,2.8,2.4,4.5,2.3
			c2.2,0,4.4-1.5,5.1-3.8c0.9-2.7-0.6-5.8-3.2-6.8c-1.8-0.7-4-0.3-5.6,1"/>
	</g>
</g>
</svg>
